// Untitled
// David William Hearn
// Created with StaffPad Editor

<global>
ampeg_decay=0
amp_veltrack=0
ampeg_sustain=100
ampeg_attack=0
ampeg_release=0.35


<group>
group_label=PP
xf_cccurve=gain
xfin_hicc1=42
xfin_locc1=0
xfout_hicc1=85
xfout_locc1=42


<region>
sample=Viola_trill_perf_4th_PP_G#4.opus
hikey=g#4
lokey=g4
pitch_keycenter=g#4

<region>
sample=Viola_trill_perf_4th_PP_G#3.opus
hikey=g#3
lokey=g3
pitch_keycenter=g#3

<region>
sample=Viola_trill_perf_4th_PP_G#2.opus
hikey=g#2
lokey=g2
pitch_keycenter=g#2

<region>
sample=Viola_trill_perf_4th_PP_F#4.opus
hikey=f#4
lokey=f4
pitch_keycenter=f#4

<region>
sample=Viola_trill_perf_4th_PP_F#3.opus
hikey=f#3
lokey=f3
pitch_keycenter=f#3

<region>
sample=Viola_trill_perf_4th_PP_F#2.opus
hikey=f#2
lokey=f2
pitch_keycenter=f#2

<region>
sample=Viola_trill_perf_4th_PP_E4.opus
hikey=e4
lokey=d#4
pitch_keycenter=e4

<region>
sample=Viola_trill_perf_4th_PP_E3.opus
hikey=e3
lokey=d#3
pitch_keycenter=e3

<region>
sample=Viola_trill_perf_4th_PP_E2.opus
hikey=e2
lokey=d#2
pitch_keycenter=e2

<region>
sample=Viola_trill_perf_4th_PP_D4.opus
hikey=d4
lokey=c#4
pitch_keycenter=d4

<region>
sample=Viola_trill_perf_4th_PP_D3.opus
hikey=d3
lokey=c#3
pitch_keycenter=d3

<region>
sample=Viola_trill_perf_4th_PP_D2.opus
hikey=d2
lokey=c#2
pitch_keycenter=d2

<region>
sample=Viola_trill_perf_4th_PP_C4.opus
hikey=c4
lokey=b3
pitch_keycenter=c4

<region>
sample=Viola_trill_perf_4th_PP_C3.opus
hikey=c3
lokey=b2
pitch_keycenter=c3

<region>
sample=Viola_trill_perf_4th_PP_C2.opus
key=c2

<region>
sample=Viola_trill_perf_4th_PP_A#4.opus
hikey=a#4
lokey=a4
pitch_keycenter=A#4

<region>
sample=Viola_trill_perf_4th_PP_A#3.opus
hikey=a#3
lokey=a3
pitch_keycenter=a#3

<region>
sample=Viola_trill_perf_4th_PP_A#2.opus
hikey=a#2
lokey=a2
pitch_keycenter=a#2



<group>
group_label=MF
xf_cccurve=gain
xfin_hicc1=85
xfin_locc1=42
xfout_hicc1=127
xfout_locc1=85


<region>
sample=Viola_trill_perf_4th_MF_G#4.opus
hikey=g#4
lokey=g4
pitch_keycenter=g#4

<region>
sample=Viola_trill_perf_4th_MF_G#3.opus
hikey=g#3
lokey=g3
pitch_keycenter=g#3

<region>
sample=Viola_trill_perf_4th_MF_G#2.opus
hikey=g#2
lokey=g2
pitch_keycenter=g#2

<region>
sample=Viola_trill_perf_4th_MF_F#4.opus
hikey=f#4
lokey=f4
pitch_keycenter=f#4

<region>
sample=Viola_trill_perf_4th_MF_F#3.opus
hikey=f#3
lokey=f3
pitch_keycenter=f#3

<region>
sample=Viola_trill_perf_4th_MF_F#2.opus
hikey=f#2
lokey=f2
pitch_keycenter=f#2

<region>
sample=Viola_trill_perf_4th_MF_E4.opus
hikey=e4
lokey=d#4
pitch_keycenter=e4

<region>
sample=Viola_trill_perf_4th_MF_E3.opus
hikey=e3
lokey=d#3
pitch_keycenter=e3

<region>
sample=Viola_trill_perf_4th_MF_E2.opus
hikey=e2
lokey=d#2
pitch_keycenter=e2

<region>
sample=Viola_trill_perf_4th_MF_D4.opus
hikey=d4
lokey=c#4
pitch_keycenter=d4

<region>
sample=Viola_trill_perf_4th_MF_D3.opus
hikey=d3
lokey=c#3
pitch_keycenter=d3

<region>
sample=Viola_trill_perf_4th_MF_D2.opus
hikey=d2
lokey=c#2
pitch_keycenter=d2

<region>
sample=Viola_trill_perf_4th_MF_C4.opus
hikey=c4
lokey=b3
pitch_keycenter=c4

<region>
sample=Viola_trill_perf_4th_MF_C3.opus
hikey=c3
lokey=b2
pitch_keycenter=c3

<region>
sample=Viola_trill_perf_4th_MF_C2.opus
key=c2

<region>
sample=Viola_trill_perf_4th_MF_A#4.opus
hikey=a#4
lokey=a4
pitch_keycenter=A#4

<region>
sample=Viola_trill_perf_4th_MF_A#3.opus
hikey=a#3
lokey=a3
pitch_keycenter=a#3

<region>
sample=Viola_trill_perf_4th_MF_A#2.opus
hikey=a#2
lokey=a2
pitch_keycenter=a#2



<group>
group_label=FF
xf_cccurve=gain
xfin_hicc1=127
xfin_locc1=85
xfout_hicc1=127
xfout_locc1=127


<region>
sample=Viola_trill_perf_4th_FF_G#4.opus
hikey=g#4
lokey=g4
pitch_keycenter=g#4

<region>
sample=Viola_trill_perf_4th_FF_G#3.opus
hikey=g#3
lokey=g3
pitch_keycenter=g#3

<region>
sample=Viola_trill_perf_4th_FF_G#2.opus
hikey=g#2
lokey=g2
pitch_keycenter=g#2

<region>
sample=Viola_trill_perf_4th_FF_F#4.opus
hikey=f#4
lokey=f4
pitch_keycenter=f#4

<region>
sample=Viola_trill_perf_4th_FF_F#3.opus
hikey=f#3
lokey=f3
pitch_keycenter=f#3

<region>
sample=Viola_trill_perf_4th_FF_F#2.opus
hikey=f#2
lokey=f2
pitch_keycenter=f#2

<region>
sample=Viola_trill_perf_4th_FF_E4.opus
hikey=e4
lokey=d#4
pitch_keycenter=e4

<region>
sample=Viola_trill_perf_4th_FF_E3.opus
hikey=e3
lokey=d#3
pitch_keycenter=e3

<region>
sample=Viola_trill_perf_4th_FF_E2.opus
hikey=e2
lokey=d#2
pitch_keycenter=e2

<region>
sample=Viola_trill_perf_4th_FF_D4.opus
hikey=d4
lokey=c#4
pitch_keycenter=d4

<region>
sample=Viola_trill_perf_4th_FF_D3.opus
hikey=d3
lokey=c#3
pitch_keycenter=d3

<region>
sample=Viola_trill_perf_4th_FF_D2.opus
hikey=d2
lokey=c#2
pitch_keycenter=d2

<region>
sample=Viola_trill_perf_4th_FF_C4.opus
hikey=c4
lokey=b3
pitch_keycenter=c4

<region>
sample=Viola_trill_perf_4th_FF_C3.opus
hikey=c3
lokey=b2
pitch_keycenter=c3

<region>
sample=Viola_trill_perf_4th_FF_C2.opus
key=c2

<region>
sample=Viola_trill_perf_4th_FF_A#4.opus
hikey=a#4
lokey=a4
pitch_keycenter=A#4

<region>
sample=Viola_trill_perf_4th_FF_A#3.opus
hikey=a#3
lokey=a3
pitch_keycenter=a#3

<region>
sample=Viola_trill_perf_4th_FF_A#2.opus
hikey=a#2
lokey=a2
pitch_keycenter=a#2

